# xmcd
#
# Track frame offsets:
#	150
#	16375
#	43105
#	61355
#	86320
#	111697
#	131477
#	145137
#	155805
#	168097
#	187110
#	200095
#	229275
#	245562
#
# Disc length: 3725 seconds
#
# Revision: 0
# Processed by: cddbd v1.5.2PL0 Copyright (c) Steve Scherf et al.
# Submitted via: dBpowerAMP V4.0
#
DISCID=cd0e8b0e
DTITLE=Terraplane Blues - Jubilee Stomp
DYEAR=2004
DGENRE=Blues
TTITLE0=Dirty Laundry
TTITLE1=Walkin' Blues
TTITLE2=Asbury Nights
TTITLE3=Queens
TTITLE4=I'd Rather Go Blind
TTITLE5=Feel So Good
TTITLE6=Big Daddy Long Legs
TTITLE7=I Am A Woman
TTITLE8=Gonna Have Some Fun
TTITLE9=If I Had Possession Over Judgement Day
TTITLE10=Thinkin' 'Bout You Blues
TTITLE11=I've Got To Sing
TTITLE12=Ain't Puttin Up No More
TTITLE13=Jubilee Stomp
EXTD=
EXTT0=
EXTT1=
EXTT2=
EXTT3=
EXTT4=
EXTT5=
EXTT6=
EXTT7=
EXTT8=
EXTT9=
EXTT10=
EXTT11=
EXTT12=
EXTT13=
PLAYORDER=
